<svg width="149" height="90" viewBox="0 0 149 90" fill="none" xmlns="http://www.w3.org/2000/svg">
<path d="M63.6126 9.11009C64.489 6.66606 67.8456 6.41374 69.0774 8.69929L76.9808 23.3628C77.4889 24.3055 78.4609 24.9058 79.5313 24.9381L96.1815 25.4398C98.7767 25.518 100.054 28.6324 98.2609 30.5102L86.7573 42.558C86.0178 43.3325 85.7472 44.4425 86.0473 45.4705L90.7153 61.4608C91.4429 63.9532 88.8756 66.1302 86.5356 65.0053L71.5227 57.7877C70.5576 57.3237 69.4183 57.4094 68.5334 58.0124L54.7682 67.3932C52.6226 68.8554 49.7588 67.0866 50.1056 64.5135L52.3306 48.005C52.4737 46.9437 52.0402 45.8866 51.1932 45.2314L38.0178 35.0387C35.9642 33.45 36.7615 30.1797 39.3158 29.7144L55.7039 26.7292C56.7575 26.5373 57.6288 25.7984 57.9902 24.7903L63.6126 9.11009Z" fill="#FFE600"/>
<path d="M17.7725 43.2226C17.8963 41.4961 20.006 40.7315 21.2073 41.9777L26.3558 47.3187C26.8512 47.8327 27.5831 48.0436 28.2761 47.8721L35.4774 46.0902C37.1576 45.6744 38.5368 47.4446 37.7228 48.9722L34.2341 55.5191C33.8984 56.1492 33.924 56.9104 34.3012 57.5165L38.2212 63.8147C39.1359 65.2842 37.8785 67.1429 36.1742 66.8408L28.8696 65.546C28.1667 65.4214 27.4506 65.6809 26.9907 66.227L22.2122 71.9014C21.0972 73.2254 18.9409 72.604 18.7016 70.8897L17.6758 63.5425C17.5771 62.8354 17.1089 62.2346 16.4475 61.966L9.57417 59.1748C7.97044 58.5235 7.89513 56.2808 9.45156 55.5234L16.1221 52.2774C16.7641 51.965 17.1908 51.3341 17.2419 50.6221L17.7725 43.2226Z" fill="#FFE600"/>
<path d="M123.408 39.2645C124.645 38.0532 126.732 38.878 126.806 40.6073L127.258 51.1362C127.289 51.8494 127.698 52.4922 128.33 52.8229L137.671 57.7036C139.205 58.5053 139.065 60.745 137.443 61.35L127.57 65.0339C126.901 65.2834 126.416 65.8706 126.297 66.5745L124.541 76.9658C124.253 78.6726 122.08 79.232 121.003 77.8766L114.448 69.6245C114.004 69.0655 113.296 68.7856 112.59 68.89L102.165 70.4314C100.452 70.6846 99.2486 68.7906 100.205 67.3479L106.028 58.5639C106.422 57.9689 106.469 57.2087 106.152 56.5693L101.464 47.1307C100.694 45.5804 102.124 43.8505 103.791 44.3142L113.945 47.1375C114.633 47.3288 115.37 47.1389 115.88 46.6393L123.408 39.2645Z" fill="#FFE600"/>
</svg>
