<svg width="424" height="230" viewBox="0 0 424 230" fill="none" xmlns="http://www.w3.org/2000/svg">
<path fill-rule="evenodd" clip-rule="evenodd" d="M328.964 13.9995L338.388 8.44907L337.488 19.363L333.84 63.5918L396.434 70.3729L409.858 71.8272L399.425 80.4053L347.362 123.209L371.978 159.852L377.795 168.511L367.379 168.696L331.368 169.336L331.163 157.984L356.757 157.529L335.08 125.262L332.203 120.979L336.185 117.706L381.795 80.2066L327.129 74.2843L321.632 73.6888L322.087 68.1706L325.29 29.3375L290.326 49.9293L284.576 40.1417L328.964 13.9995ZM71.5282 57.2081L61.2609 55.0758L65.1059 64.8464L82.9665 110.232L23.699 134.999L11.679 140.022L23.5453 145.409L82.4459 172.147L69.5473 214.033L66.556 223.747L76.3837 221.205L112.83 211.777L109.991 200.784L83.372 207.669L94.7512 170.717L96.2232 165.937L91.6729 163.871L40.0884 140.455L92.4619 118.569L97.5879 116.427L95.5507 111.25L79.4979 70.4578L119.087 78.6798L121.385 67.5625L71.5282 57.2081Z" fill="#FFE600"/>
</svg>
