<svg width="111" height="213" viewBox="0 0 111 213" fill="none" xmlns="http://www.w3.org/2000/svg">
<path fill-rule="evenodd" clip-rule="evenodd" d="M103.908 52.6626L88.6897 43.9195L94.9707 32.9982L110.189 41.7413L103.908 52.6626ZM80.8354 39.4069L31.2546 10.9213L37.5355 0L87.1163 28.4856L80.8354 39.4069ZM25.427 132.657C21.0624 129.526 12.105 118.655 12.6254 103.032C12.8546 96.1491 14.6845 89.5073 17.9727 84.8489C21.0718 80.4583 25.4932 77.699 32.0411 77.9169C33.4079 77.9624 34.6793 78.526 36.3251 81.4388C37.9579 84.3287 39.1701 88.1688 40.6838 92.9637L40.6861 92.9713C40.8445 93.4728 41.0061 93.9848 41.1718 94.5073C42.7799 99.5758 44.7932 105.655 48.1447 110.482C51.7393 115.66 57.1086 119.721 65.0042 119.983L65.4235 107.393C62.3702 107.292 60.3641 105.986 58.4994 103.3C56.3916 100.264 54.8618 95.9829 53.1857 90.6996C53.0178 90.1705 52.8475 89.6276 52.6739 89.074L52.6731 89.0712C51.2618 84.5711 49.6311 79.3711 47.2994 75.2443C44.5216 70.328 39.9711 65.5767 32.4604 65.3268C21.2534 64.9539 12.9698 70.0847 7.6743 77.587C2.56782 84.8214 0.313352 94.0754 0.0289856 102.613C-0.653411 123.101 10.8697 137.72 18.0783 142.891L25.427 132.657ZM74.4735 120.299L83.9427 120.614L84.3621 108.024L74.8928 107.709L74.4735 120.299ZM95.9923 195.364L78.8329 199.058L76.1792 186.744L93.3385 183.05L95.9923 195.364ZM69.9765 200.965L14.0703 213L11.4166 200.685L67.3228 188.65L69.9765 200.965Z" fill="#FFE600"/>
</svg>
